<svg width="200" height="200" viewBox="0 0 200 200" fill="none" xmlns="http://www.w3.org/2000/svg">
<path d="M100.866 9.5L178.808 144.5C179.193 145.167 178.712 146 177.942 146L22.0577 146C21.2879 146 20.8068 145.167 21.1917 144.5L99.134 9.49999C99.5189 8.83334 100.481 8.83332 100.866 9.5Z" fill="#F8F8F2" stroke="#FF5555" stroke-width="8"/>
<path d="M114.352 73.51L116.692 115H109.372L108.592 95.89C108.532 94.29 108.492 92.81 108.472 91.45C108.472 90.07 108.482 88.77 108.502 87.55C108.522 86.31 108.552 85.12 108.592 83.98C108.652 82.84 108.722 81.72 108.802 80.62L103.312 107.8H96.6517L90.7717 80.62C90.8517 81.68 90.9217 82.79 90.9817 83.95C91.0417 85.11 91.0817 86.32 91.1017 87.58C91.1417 88.84 91.1617 90.17 91.1617 91.57C91.1817 92.97 91.1617 94.43 91.1017 95.95L90.5317 115H83.3317L85.6717 73.51H94.7917L100.132 100.9L105.232 73.51H114.352Z" fill="#44475A"/>
</svg>
