<svg width="200" height="200" viewBox="0 0 200 200" fill="none" xmlns="http://www.w3.org/2000/svg">
<circle cx="100" cy="100" r="95" fill="#282A36" stroke="#FF5555" stroke-width="10"/>
<path d="M131.095 53.105L136.165 143H120.305L118.615 101.595C118.485 98.1283 118.399 94.9217 118.355 91.975C118.355 88.985 118.377 86.1683 118.42 83.525C118.464 80.8383 118.529 78.26 118.615 75.79C118.745 73.32 118.897 70.8933 119.07 68.51L107.175 127.4H92.7454L80.0054 68.51C80.1787 70.8067 80.3304 73.2117 80.4604 75.725C80.5904 78.2383 80.6771 80.86 80.7204 83.59C80.8071 86.32 80.8504 89.2017 80.8504 92.235C80.8937 95.2683 80.8504 98.4317 80.7204 101.725L79.4854 143H63.8854L68.9554 53.105H88.7154L100.285 112.45L111.335 53.105H131.095Z" fill="#FF5555"/>
</svg>
